<svg xmlns="http://www.w3.org/2000/svg" viewBox="0 0 32 32">
  <defs>
    <linearGradient id="bg" x1="0%" y1="0%" x2="100%" y2="100%">
      <stop offset="0%" stop-color="#0f0a1e"/>
      <stop offset="100%" stop-color="#1c0f35"/>
    </linearGradient>
    <linearGradient id="bodice" x1="0%" y1="0%" x2="0%" y2="100%">
      <stop offset="0%" stop-color="#c084fc"/>
      <stop offset="100%" stop-color="#8b5cf6"/>
    </linearGradient>
    <linearGradient id="skirt" x1="0%" y1="0%" x2="30%" y2="100%">
      <stop offset="0%" stop-color="#a855f7"/>
      <stop offset="100%" stop-color="#ec4899"/>
    </linearGradient>
  </defs>
  <rect width="32" height="32" rx="7" fill="url(#bg)"/>
  <rect x="7" y="7" width="18" height="2" rx="1" fill="#c4b5fd"/>
  <path d="M14 7 Q16 3.5 18 7" fill="none" stroke="#c4b5fd" stroke-width="1.5" stroke-linecap="round"/>
  <polygon points="6,9 26,9 23,16 9,16" fill="url(#bodice)"/>
  <polygon points="9,16 23,16 27,29 5,29" fill="url(#skirt)"/>
  <rect x="8" y="15" width="16" height="1.5" rx="0.75" fill="rgba(255,255,255,0.25)"/>
  <line x1="28" y1="3" x2="28" y2="7" stroke="#fde68a" stroke-width="1.5" stroke-linecap="round"/>
  <line x1="26" y1="5" x2="30" y2="5" stroke="#fde68a" stroke-width="1.5" stroke-linecap="round"/>
  <line x1="26.5" y1="3.5" x2="29.5" y2="6.5" stroke="#fde68a" stroke-width="1" stroke-linecap="round" opacity="0.5"/>
  <line x1="29.5" y1="3.5" x2="26.5" y2="6.5" stroke="#fde68a" stroke-width="1" stroke-linecap="round" opacity="0.5"/>
</svg>
